<?xml version="1.0" ?><svg id="Layer_1" style="enable-background:new 0 0 96 96;" version="1.1" viewBox="0 0 96 96" xml:space="preserve" xmlns="http://www.w3.org/2000/svg" xmlns:xlink="http://www.w3.org/1999/xlink"><style type="text/css">
	.st0{fill:none;stroke:#010000;stroke-width:4;stroke-linecap:round;stroke-miterlimit:10;}
	.st1{fill:none;stroke:#010000;stroke-width:4;stroke-linecap:round;stroke-linejoin:round;stroke-miterlimit:10;}
	.st2{fill:none;stroke:#010000;stroke-width:4;stroke-linejoin:round;stroke-miterlimit:10;}
	.st3{fill:none;stroke:#010000;stroke-width:6;stroke-linecap:round;stroke-linejoin:round;stroke-miterlimit:10;}
	.st4{fill:#010000;}
	.st5{fill:none;stroke:#010000;stroke-width:3.8974;stroke-linejoin:round;stroke-miterlimit:10;}
	.st6{fill:none;stroke:#010000;stroke-width:2;stroke-linecap:round;stroke-linejoin:round;stroke-miterlimit:10;}
	.st7{fill:#010000;stroke:#010000;stroke-width:2;stroke-miterlimit:10;}
	.st8{opacity:0.75;}
	.st9{fill:none;stroke:#010000;stroke-width:2;stroke-linejoin:round;stroke-miterlimit:10;}
	.st10{fill:none;stroke:#010000;stroke-width:6;stroke-linejoin:round;stroke-miterlimit:10;}
	.st11{fill:none;stroke:#010000;stroke-width:3;stroke-linejoin:round;stroke-miterlimit:10;}
	.st12{fill:none;stroke:#010000;stroke-width:3.9497;stroke-linejoin:round;stroke-miterlimit:10;}
	.st13{fill:none;stroke:#010000;stroke-width:1.9008;stroke-linejoin:round;stroke-miterlimit:10;}
	.st14{fill:none;stroke:#010000;stroke-width:1.9935;stroke-linejoin:round;stroke-miterlimit:10;}
	.st15{fill:none;stroke:#010000;stroke-width:4;stroke-miterlimit:10;}
	.st16{fill:none;stroke:#010000;stroke-width:1.9048;stroke-linecap:round;stroke-linejoin:round;stroke-miterlimit:10;}
	.st17{fill:none;stroke:#010000;stroke-width:1.934;stroke-linecap:round;stroke-linejoin:round;stroke-miterlimit:10;}
	.st18{fill:none;stroke:#010000;stroke-width:1.9684;stroke-linecap:round;stroke-linejoin:round;stroke-miterlimit:10;}
	.st19{fill:none;stroke:#010000;stroke-width:1.9343;stroke-linecap:round;stroke-linejoin:round;stroke-miterlimit:10;}
</style><g><path class="st1" d="M70,92H11c-2.2,0-4-1.8-4-4s1.8-4,4-4H85c2.2,0,4,1.8,4,4s-1.8,4-4,4h-9"/></g><g><path class="st1" d="M56,21H12c-2.2,0-4-1.8-4-4s1.8-4,4-4h7"/></g><g><path class="st2" d="M68,13h16c2.2,0,4,1.8,4,4s-1.8,4-4,4H68"/></g><g><line class="st1" x1="25" x2="56" y1="13" y2="13"/></g><g class="st8"><line class="st9" x1="13" x2="13" y1="47" y2="81"/><line class="st9" x1="13" x2="13" y1="24" y2="27"/><line class="st9" x1="17" x2="17" y1="47" y2="81"/><line class="st9" x1="17" x2="17" y1="24" y2="27"/><line class="st9" x1="46" x2="46" y1="66" y2="81"/><line class="st9" x1="46" x2="46" y1="24" y2="31"/><line class="st9" x1="50" x2="50" y1="66" y2="81"/><line class="st9" x1="79" x2="79" y1="47" y2="81"/><line class="st9" x1="79" x2="79" y1="24" y2="27"/><line class="st9" x1="83" x2="83" y1="47" y2="81"/><line class="st9" x1="83" x2="83" y1="24" y2="27"/></g><rect class="st1" height="21" width="10" x="43" y="36"/><path class="st1" d="M17.2,44h-4.4c-1,0-1.8-0.8-1.8-1.8V31.8c0-1,0.8-1.8,1.8-1.8h4.4c1,0,1.8,0.8,1.8,1.8v10.4  C19,43.2,18.2,44,17.2,44z"/><path class="st1" d="M83.2,44h-4.4c-1,0-1.8-0.8-1.8-1.8V31.8c0-1,0.8-1.8,1.8-1.8h4.4c1,0,1.8,0.8,1.8,1.8v10.4  C85,43.2,84.2,44,83.2,44z"/><line class="st10" x1="50" x2="50" y1="36" y2="32"/><g><path class="st11" d="M45.8,60.5c-0.5-0.7-0.2-1,0.7-1h3c0.8,0,1.1,0.3,0.7,1l-1.3,1.9c-0.5,0.7-1.2,0.7-1.7,0.1L45.8,60.5z"/></g><g><path class="st2" d="M50,31c0,0,0-0.9,0-2s1.8-2,4-2h7c2.2,0,4-1.8,4-4V9c0-2.2-1.8-4-4-4h-5c-2.2,0-4,1.1-4,2.5s0,2.5,0,2.5"/></g><line class="st2" x1="53" x2="62" y1="13" y2="13"/><line class="st2" x1="54" x2="62" y1="21" y2="21"/><line class="st2" x1="19" x2="43" y1="37" y2="55"/><line class="st2" x1="77" x2="53" y1="37" y2="55"/></svg>