<?xml version="1.0" ?><!DOCTYPE svg  PUBLIC '-//W3C//DTD SVG 1.1//EN'  'http://www.w3.org/Graphics/SVG/1.1/DTD/svg11.dtd'><svg xmlns="http://www.w3.org/2000/svg" xmlns:xlink="http://www.w3.org/1999/xlink" xml:space="preserve" width="512px" height="512px" style="shape-rendering:geometricPrecision; text-rendering:geometricPrecision; image-rendering:optimizeQuality; fill-rule:evenodd; clip-rule:evenodd" viewBox="0 0 512 512"><defs><style type="text/css">
   <![CDATA[
    .fil0 {fill:black}
   ]]>
  </style></defs><g id="Layer_x0020_1"><g id="_287011208"><g><g><g id="_280431608"><path id="_287013968" class="fil0" d="M205.743 357.899c-25.5001,0 -46.2001,-20.7001 -46.2001,-46.2001l0 -35.2005c0,-1.99961 1.0004,-3.79962 2.59961,-4.99962 1.6004,-1.09961 3.70041,-1.3004 5.59962,-0.600002 12.1004,4.80001 24.9001,7.30042 37.9005,7.30042 13.0996,0 25.9005,-2.40001 37.9005,-7.30042 1.80001,-0.700396 3.90001,-0.499608 5.59962,0.600002 1.6004,1.09961 2.59961,3.00001 2.59961,4.99962l0 35.2005c0.200788,25.5001 -20.4993,46.2001 -45.9994,46.2001zm-34.1989 -72.7998l0 26.7001c0,18.7997 15.3,34.2001 34.2001,34.2001 18.7997,0 34.2001,-15.3 34.2001,-34.2001l0 -26.7001c-10.9996,3.4004 -22.5001,5.20041 -34.2001,5.20041 -11.7012,0 -23.1001,-1.80001 -34.2001,-5.20041z"/></g><g id="_280435112"><path id="_287013272" class="fil0" d="M397.342 511.999l-383.198 0c-3.30001,0 -6.00002,-2.70001 -6.00002,-6.00002l0 -90.1999c0,-62.5006 50.8998,-113.4 113.4,-113.4l44.099 0c3.30001,0 6.00002,2.70001 6.00002,6.00002l0 3.30001c0,18.7997 15.3,34.2001 34.2001,34.2001 18.7997,0 34.2001,-15.3 34.2001,-34.2001l0 -3.30001c0,-3.30001 2.70001,-6.00002 6.00002,-6.00002l44.099 0c62.5006,0 113.4,50.8998 113.4,113.4l0 90.1999c-0.200788,3.30001 -2.8004,6.00002 -6.20081,6.00002zm-377.198 -12l371.298 0 0 -84.1999c0,-55.9006 -45.4997,-101.4 -101.4,-101.4l-38.1981 0c-1.39961,24.1997 -21.4997,43.5001 -46.0997,43.5001 -24.6001,0 -44.7001,-19.3005 -46.0997,-43.5001l-38.2005 0c-55.9006,0 -101.4,45.4997 -101.4,101.4l0 84.1999 0.100394 0z"/></g><g id="_280434704"><path id="_287013728" class="fil0" d="M318.942 511.999l-226.399 0c-3.30001,0 -6.00002,-2.70001 -6.00002,-6.00002l0 -93.3003c0,-1.5 0.600002,-2.89962 1.6004,-4.00041l26.8997 -29.5005 0 -70.8002c0,-3.30001 2.70001,-6.00002 6.00002,-6.00002l44.5997 0.00118111c3.30001,0 6.00002,2.70001 6.00002,6.00002l0 3.30001c0,18.7997 15.3,34.2001 34.2001,34.2001 18.7997,0 34.2001,-15.3 34.2001,-34.2001l0 -3.30001c0,-3.30001 2.70001,-6.00002 6.00002,-6.00002l44.5986 0c3.30001,0 6.00002,2.70001 6.00002,6.00002l0 70.8002 26.8997 29.5005c1.0004,1.09961 1.6004,2.5004 1.6004,4.00041l0 93.2991c-0.199607,3.30001 -2.89962,6.00002 -6.19963,6.00002zm-220.399 -12l214.399 0 0 -84.9003 -26.8997 -29.5005c-1.0004,-1.09961 -1.6004,-2.5004 -1.6004,-4.00041l0 -67.0998 -32.6989 0.00118111c-1.39961,24.1997 -21.4997,43.5001 -46.0997,43.5001 -24.6001,0 -44.7001,-19.3005 -46.0997,-43.5001l-32.6009 0 0 67.0998c0,1.5 -0.600002,2.89962 -1.6004,4.00041l-26.8997 29.5005 0 84.8991 0.100394 0z"/></g><g id="_280434968"><path id="_287013176" class="fil0" d="M318.942 418.699l-226.399 0c-3.30001,0 -6.00002,-2.70001 -6.00002,-6.00002 0,-3.30001 2.70001,-6.00002 6.00002,-6.00002l226.399 0c3.30001,0 6.00002,2.70001 6.00002,6.00002 0,3.30001 -2.70001,6.00002 -6.00002,6.00002z"/></g><g id="_280435904"><path id="_287012912" class="fil0" d="M318.942 470.399l-226.399 0c-3.30001,0 -6.00002,-2.70001 -6.00002,-6.00002 0,-3.30001 2.70001,-6.00002 6.00002,-6.00002l226.399 0c3.30001,0 6.00002,2.70001 6.00002,6.00002 0,3.30001 -2.70001,6.00002 -6.00002,6.00002z"/></g><g id="_280435736"><path id="_287012792" class="fil0" d="M205.743 511.999c-3.30001,0 -6.00002,-2.70001 -6.00002,-6.00002l0 -154.1c0,-3.30001 2.70001,-6.00002 6.00002,-6.00002 3.30001,0 6.00002,2.70001 6.00002,6.00002l0 154.1c0,3.30001 -2.70001,6.00002 -6.00002,6.00002z"/></g><g><g id="_280434776"><path id="_287013008" class="fil0" d="M205.743 290.299c-63.6002,0 -115.4,-51.7986 -115.4,-115.399l0 -118.601c0,-30.9993 25.3005,-56.2998 56.301,-56.2998l118.198 0c31.0997,0 56.2998,25.3005 56.2998,56.2998l0 118.5c0,63.6994 -51.7998,115.499 -115.399,115.499zm-59.099 -278.299c-24.4005,0 -44.2997,19.9005 -44.2997,44.2997l0 118.5c0,57.0002 46.3997,103.399 103.4,103.399 56.999,0 103.399,-46.3986 103.399,-103.399l0 -118.5c0,-24.4005 -19.9005,-44.2997 -44.2997,-44.2997l-118.199 0z"/></g><g id="_280435784"><path id="_287012840" class="fil0" d="M344.542 147.6l-29.3989 0c-3.30001,0 -6.00002,-2.70001 -6.00002,-6.00002l0 -79.6999c0,-3.30001 2.70001,-6.00002 6.00002,-6.00002l29.3989 0c4.00041,0 7.30042,3.30001 7.30042,7.30042l0 76.9998c0.100394,4.09962 -3.19962,7.39963 -7.30042,7.39963zm-23.4001 -12l18.8008 0 0 -67.701 -18.8008 0 0 67.701zm-224.799 12l-29.4001 0c-4.00041,0 -7.30042,-3.30001 -7.30042,-7.30042l0 -76.9998c0,-4.00041 3.30001,-7.30042 7.30042,-7.30042l29.4001 0c3.30001,0 6.00002,2.70001 6.00002,6.00002l0 79.6999c0,3.30001 -2.70001,5.90081 -6.00002,5.90081zm-24.7997 -12l18.7997 0 0 -67.701 -18.7997 0 0 67.701z"/></g><g id="_280435520"><path id="_287012240" class="fil0" d="M262.142 160.6l-112.798 0c-7.00042,0 -12.7004,-5.70002 -12.7004,-12.7004l0 -70.199c0,-7.00042 5.70002,-12.7004 12.7004,-12.7004l112.798 0c7.00042,0 12.7004,5.70002 12.7004,12.7004l0 70.0998c0,7.09963 -5.70002,12.7996 -12.7004,12.7996zm-112.798 -83.5999c-0.400395,0 -0.700396,0.300001 -0.700396,0.700396l0 70.0998c0,0.400395 0.300001,0.700396 0.700396,0.700396l112.798 0c0.400395,0 0.700396,-0.300001 0.700396,-0.700396l0 -70.0998c0,-0.400395 -0.300001,-0.700396 -0.700396,-0.700396l-112.798 0z"/></g><g><g id="_280435688"><path id="_287012432" class="fil0" d="M165.844 248.3c-0.400395,0 -0.900003,0 -1.3004,-0.199607 -3.19962,-0.700396 -5.29962,-4.00041 -4.50001,-7.20002 3.60001,-15.7997 -15.1004,-30.7997 -15.3,-31.0005 -2.59961,-1.99961 -3.1004,-5.80041 -1.09961,-8.40003 1.99961,-2.59961 5.80041,-3.1004 8.40003,-1.09961 1.0004,0.799609 25.0005,19.6997 19.6005,43.0997 -0.601183,2.89962 -3.1004,4.80001 -5.80041,4.80001z"/></g><g id="_280435952"><path id="_287011928" class="fil0" d="M245.643 248.3c-2.70001,0 -5.20041,-1.9004 -5.80041,-4.69962 -5.29962,-23.4001 18.5989,-42.3001 19.5993,-43.0997 2.59961,-1.99961 6.40041,-1.6004 8.40003,1.09961 1.99961,2.59961 1.6004,6.40041 -1.0004,8.40003l0 0c-0.199607,0.100394 -18.8989,15.1004 -15.2989,31.0005 0.700396,3.19962 -1.3004,6.40041 -4.50001,7.20002 -0.499608,0.0992129 -0.898822,0.0992129 -1.39961,0.0992129z"/></g></g></g></g><g><g id="_280436096"><path id="_287011736" class="fil0" d="M497.742 511.999l-60.899 0c-3.30001,0 -6.00002,-2.70001 -6.00002,-6.00002l0 -149.1c0,-3.30001 2.70001,-6.00002 6.00002,-6.00002l60.899 0c3.30001,0 6.00002,2.70001 6.00002,6.00002l0 149.1c0,3.30001 -2.59961,6.00002 -6.00002,6.00002zm-54.899 -12l48.899 0 0 -137.1 -48.899 0 0 137.1z"/></g><g id="_280435448"><path id="_287012408" class="fil0" d="M497.742 362.898l-60.899 0c-1.9004,0 -3.60001,-0.900003 -4.80001,-2.40001 -1.09961,-1.5 -1.5,-3.4004 -1.0004,-5.20041l14.4 -52.5002c0.700396,-2.59961 3.1004,-4.39962 5.80041,-4.39962l32.1993 0.00118111c2.70001,0 5.10002,1.80001 5.80041,4.39962l14.4 52.5002c0.499608,1.80001 0.100394,3.70041 -1.0004,5.20041 -1.2,1.49882 -3.00001,2.39883 -4.90041,2.39883zm-52.9998 -12l45.1997 0 -11.1 -40.5001 -22.9997 0.00118111 -11.1 40.4989z"/></g><g id="_280436864"><path id="_287011400" class="fil0" d="M467.342 310.399c-3.30001,0 -6.00002,-2.70001 -6.00002,-6.00002l0 -109.799 -47.5005 0c-3.30001,0 -6.00002,-2.70001 -6.00002,-6.00002 0,-3.30001 2.70001,-6.00002 6.00002,-6.00002l53.5006 0c3.30001,0 6.00002,2.70001 6.00002,6.00002l0 115.699c0,3.4004 -2.70001,6.10041 -6.00002,6.10041z"/></g></g></g></g></g></svg>